<svg width="512" height="512" viewBox="0 0 512 512" fill="none" xmlns="http://www.w3.org/2000/svg">
<rect width="512" height="512" fill="white"/>
<path d="M43 213.446H62.8151V246.578H83.7616V265.251H62.8151V273.085H43V213.446ZM43 297.783V277.901H86.5919L85.6473 297.783H43ZM85.6473 213.446L84.7195 233.324H66.6967V213.446H85.6473Z" fill="#2028ED"/>
<path d="M114.894 280.307H140.456C139.134 285.612 136.587 289.89 132.813 293.14C129.039 296.391 124.256 298.339 118.462 298.984C117.146 299.148 115.822 299.228 114.497 299.225C110.681 299.209 106.887 298.662 103.222 297.599C99.5651 296.582 96.0826 295.018 92.8926 292.96L97.5151 275.128C104.633 278.581 110.426 280.307 114.894 280.307ZM141.504 271.63C141.504 272.274 141.487 272.918 141.454 273.559C141.421 274.2 141.377 274.844 141.314 275.488H122.914C122.977 275.334 123.01 275.17 123.011 275.004V274.523C123.025 273.645 122.846 272.775 122.488 271.973C122.129 271.172 121.599 270.459 120.935 269.884C119.332 268.501 117.532 267.364 115.595 266.51C113.423 265.509 111.127 264.364 108.706 263.076C106.214 261.744 103.9 260.105 101.817 258.196C99.5266 256.067 97.7075 253.482 96.4771 250.606C95.0931 247.516 94.4012 243.641 94.4012 238.982C94.3923 236.922 94.5654 234.866 94.9185 232.837C95.2492 230.991 95.7451 229.178 96.4004 227.42C97.9089 223.567 100.109 220.434 103.002 218.022C105.887 215.618 109.272 213.889 112.911 212.962V236.325C112.894 237.16 113.073 237.988 113.433 238.741C113.794 239.495 114.326 240.153 114.987 240.664C116.629 241.944 118.423 243.017 120.327 243.858C122.497 244.861 124.793 245.985 127.216 247.229C129.721 248.537 132.037 250.178 134.101 252.108C136.393 254.285 138.211 256.911 139.442 259.821C140.814 262.959 141.502 266.895 141.504 271.63ZM139.522 217.541L135.85 235.254C134.254 234.412 132.598 233.687 130.897 233.084C129.37 232.541 127.809 232.095 126.225 231.749C124.67 231.432 123.091 231.25 121.505 231.205C119.931 231.167 118.356 231.227 116.79 231.385V212.241C118.373 212.083 119.965 212.023 121.556 212.061C123.026 212.094 124.491 212.235 125.941 212.482C128.411 212.855 130.833 213.502 133.16 214.411C135.362 215.281 137.489 216.328 139.522 217.541Z" fill="#2028ED"/>
<path d="M167.637 280.307H193.206C191.886 285.612 189.339 289.89 185.563 293.14C181.787 296.391 177.003 298.339 171.211 298.984C169.897 299.148 168.574 299.228 167.25 299.225C163.434 299.209 159.64 298.662 155.975 297.599C152.312 296.584 148.824 295.02 145.629 292.96L150.251 275.128C157.376 278.581 163.171 280.307 167.637 280.307ZM194.244 271.63C194.244 272.274 194.227 272.918 194.197 273.559C194.167 274.2 194.117 274.844 194.057 275.488H175.657C175.719 275.334 175.75 275.17 175.75 275.004V274.523C175.766 273.645 175.589 272.774 175.23 271.972C174.871 271.171 174.34 270.458 173.674 269.884C172.072 268.5 170.272 267.363 168.334 266.51C166.165 265.509 163.87 264.364 161.449 263.076C158.957 261.744 156.643 260.105 154.56 258.196C152.27 256.067 150.45 253.482 149.22 250.606C147.836 247.516 147.144 243.641 147.144 238.982C147.134 236.922 147.307 234.866 147.661 232.837C147.989 230.991 148.482 229.178 149.133 227.42C150.646 223.567 152.848 220.434 155.738 218.022C158.623 215.619 162.007 213.89 165.644 212.962V236.325C165.627 237.16 165.806 237.988 166.166 238.741C166.527 239.495 167.059 240.153 167.72 240.664C169.362 241.944 171.156 243.017 173.06 243.858C175.23 244.861 177.525 245.985 179.946 247.229C182.458 248.538 184.78 250.183 186.848 252.118C189.139 254.295 190.957 256.92 192.188 259.831C193.561 262.962 194.246 266.895 194.244 271.63ZM192.265 217.535L188.583 235.25C186.986 234.409 185.331 233.684 183.63 233.081C182.103 232.538 180.542 232.092 178.958 231.746C177.403 231.428 175.824 231.246 174.238 231.202C172.664 231.164 171.089 231.224 169.522 231.382V212.241C171.105 212.083 172.695 212.023 174.285 212.061C175.756 212.094 177.223 212.235 178.674 212.482C181.143 212.855 183.564 213.502 185.89 214.411C188.096 215.28 190.228 216.327 192.265 217.541V217.535Z" fill="#2028ED"/>
<path d="M222 298H202V233H222V298Z" fill="#2028ED"/>
<path d="M230 235.902L230.95 216H286L285.06 235.902H230ZM248.102 297.987V240.598H267.901V298L248.102 297.987Z" fill="#2028ED"/>
<path d="M294.352 213.446H314.167V246.578H335.113V265.251H314.167V273.085H294.352V213.446ZM294.352 297.783V277.901H337.943L336.999 297.783H294.352ZM336.999 213.446L336.054 233.324H318.032V213.446H336.999Z" fill="#2028ED"/>
<path d="M365.113 215.492V255.609C365.092 258.601 365.362 261.588 365.918 264.527C366.465 267.296 367.402 269.972 368.701 272.477H347.471C346.005 267.057 345.276 261.464 345.301 255.85C345.301 246.059 347.047 237.687 350.538 230.731C354.029 223.776 358.888 218.696 365.113 215.492ZM380.683 299.228C373.133 299.228 366.654 297.28 361.245 293.384C355.836 289.488 351.747 284.128 348.979 277.303H379.091C382.616 277.346 386.138 277.063 389.611 276.459C392.4 275.968 395.092 275.032 397.584 273.689L401.075 292.713C398.75 294.716 395.794 296.302 392.208 297.472C388.482 298.66 384.593 299.253 380.683 299.228ZM382.382 233.915C380.719 233.916 379.06 234.061 377.422 234.349C375.91 234.609 374.414 234.951 372.94 235.374C371.586 235.764 370.262 236.247 368.975 236.819V213.927C370.742 213.25 372.577 212.765 374.448 212.481C376.477 212.16 378.528 211.999 380.583 212.001C384.512 211.975 388.419 212.605 392.141 213.866C395.756 215.112 398.728 216.659 401.055 218.506L397.564 237.53C395.128 236.436 392.603 235.55 390.018 234.88C387.523 234.241 384.957 233.917 382.382 233.915Z" fill="#2028ED"/>
<path d="M429.085 297.783H409.273V213.446H429.085V297.783ZM449.184 297.783V266.336H432.953V245.854H468.999V297.783H449.184ZM468.996 213.446V241.034H449.181V213.446H468.996Z" fill="#2028ED"/>
<path d="M226.298 194.769C228.991 192.863 230.627 189.386 230.351 186.139C230.246 184.825 229.471 182.613 228.718 181.475C228.29 180.832 223.866 176.589 212.459 165.908C203.839 157.832 196.477 150.988 196.11 150.711C194.52 149.545 191.914 148.854 189.83 149.026C188.516 149.132 186.289 149.911 185.197 150.649C183.47 151.794 181.86 153.996 181.329 155.904C180.995 157.169 174.98 198.824 175 199.797C175.039 201.067 175.907 203.785 176.644 204.878C178.527 207.698 182.071 209.429 185.414 209.136C186.612 209.038 188.909 208.267 189.827 207.658C190.187 207.431 193.318 204.848 196.772 201.933C201.8 197.724 203.239 196.578 203.811 196.378C204.382 196.178 206.222 196.176 212.777 196.329C217.296 196.452 221.354 196.517 221.777 196.47C222.91 196.377 225.34 195.459 226.298 194.769ZM219.71 190.135C218.949 190.131 218.152 190.073 217.929 190.016C217.378 189.888 204.787 189.569 203.79 189.664C202.809 189.755 200.462 190.577 199.639 191.118C199.279 191.346 196.147 193.928 192.663 196.854C185.844 202.602 185.615 202.767 184.266 202.581C182.337 202.328 181.351 200.765 181.679 198.471C182.007 196.128 182.596 192.071 182.828 190.47C182.961 189.596 183.226 187.747 183.422 186.378C183.618 185.009 183.888 183.175 184.016 182.286C184.149 181.412 184.413 179.563 184.609 178.194C184.805 176.825 185.075 174.991 185.203 174.102C185.336 173.228 185.6 171.38 185.796 170.011C185.992 168.642 186.253 166.879 186.367 166.095C187.091 161.266 187.421 158.735 187.341 158.51C187.22 158.164 187.883 156.682 188.356 156.246C188.898 155.769 190.147 155.332 190.858 155.387C191.166 155.398 191.703 155.581 192.053 155.762C192.424 155.953 199.381 162.366 207.981 170.432C224.046 185.493 223.759 185.205 223.993 186.693C224.094 187.367 223.576 188.731 223.014 189.248C222.362 189.848 221.208 190.168 219.71 190.135Z" fill="#2028ED"/>
<path d="M217.303 225.259C217.861 224.877 218.862 224.021 219.507 223.356C220.485 222.338 220.84 221.808 221.627 220.198C222.678 218.04 223.033 216.498 223.014 214.225C223.005 212.995 222.925 212.668 222.155 210.472C221.428 208.346 221.235 207.941 220.587 207.053C219.249 205.259 217.79 204.081 215.622 203.05C213.977 202.258 213.41 202.086 211.995 201.905C209.723 201.637 208.138 201.787 206.122 202.493C204.197 203.167 203.177 203.727 201.848 204.851C199.549 206.821 197.861 209.911 197.517 212.835C197.234 215.113 197.404 216.657 198.141 218.763C199.416 222.404 201.701 224.829 205.323 226.397C207.114 227.172 209.348 227.521 211.361 227.34C213.128 227.177 215.865 226.218 217.303 225.259ZM211.04 220.782C209.372 221.129 207.026 220.313 205.654 218.902C205.029 218.276 204.884 218.006 204.394 216.607C203.904 215.208 203.849 214.907 203.947 214.028C204.302 210.459 207.539 207.89 211.05 208.366C212.928 208.62 214.803 209.923 215.716 211.613C217.339 214.608 216.113 218.583 213.082 220.151C212.682 220.359 212.211 220.557 212.035 220.585C211.865 220.628 211.422 220.715 211.04 220.782Z" fill="#2028ED"/>
</svg>
